# xmcd
#
# Track frame offsets:
#	150
#	14624
#	32998
#	49497
#	65995
#	81970
#	100269
#	119087
#	133637
#	148337
#
# Disc length: 2180
#
# Revision: 3
# Processed by: cddbd v1.5.1PL0 Copyright (c) Steve Scherf et al.
# Submitted via: EasyCDDAExtractor 6.2.0.3
# Normalized: r2:DSETVAR1
#
DISCID=a308820a
DTITLE=Various Artist - Compilation
DYEAR=2000
DGENRE=Country
TTITLE0=The Mavericks - Here Comes My Baby
TTITLE1=The Mavericks - Pizziricco
TTITLE2=Keith Urban - It's A Love Thing
TTITLE3=Kenny Chesney - She Thinks My Tractor's Sexy
TTITLE4=Rick Tippe - Giddy Up
TTITLE5=Shania Twain - That Don't Impress Me Much
TTITLE6=LFO - Girl On TV
TTITLE7=Lou Bega - I Got A Girl
TTITLE8=Tina Arena - Live For The One I Love
TTITLE9=The Olsen Brothers - I Have To Dance
EXTD=
EXTT0=
EXTT1=
EXTT2=
EXTT3=
EXTT4=
EXTT5=
EXTT6=
EXTT7=
EXTT8=
EXTT9=
PLAYORDER=
